<svg width="20" height="16" viewBox="0 0 20 16" fill="none" xmlns="http://www.w3.org/2000/svg">
<path d="M14.1797 10.5H15.8203V12.1797H14.1797V10.5ZM14.1797 7.17969H15.8203V8.82031H14.1797V7.17969ZM14.1797 3.82031H15.8203V5.5H14.1797V3.82031ZM11.4453 3.82031L12.5 4.52344V3.82031H11.4453ZM8.32031 0.5V1.75L10 2.88281V2.17969H17.5V13.8203H14.1797V15.5H19.1797V0.5H8.32031ZM6.79688 2.76562L12.5 6.55469V15.5H0.820312V6.75L6.79688 2.76562ZM8.32031 13.8203H10.8203V7.29688L6.79688 4.75781L2.5 7.49219V13.8203H5V8.82031H8.32031V13.8203Z" fill="#747A80"/>
</svg>
