<svg width="18" height="16" viewBox="0 0 18 16" fill="none" xmlns="http://www.w3.org/2000/svg">
  <path
    d="M15.6797 3.82031H12.3203V2.17969L10.6797 0.5H7.32031L5.67969 2.17969V3.82031H2.32031C1.42188 3.82031 0.679688 4.60156 0.679688 5.5V9.67969C0.679688 10.3047 0.992188 10.8125 1.5 11.125V13.8203C1.5 14.7578 2.24219 15.5 3.17969 15.5H14.8203C15.7578 15.5 16.5 14.7578 16.5 13.8203V11.0859C17.0078 10.8125 17.3203 10.2656 17.3203 9.67969V5.5C17.3203 4.60156 16.5781 3.82031 15.6797 3.82031ZM7.32031 2.17969H10.6797V3.82031H7.32031V2.17969ZM2.32031 5.5H15.6797V9.67969H11.5V7.17969H6.5V9.67969H2.32031V5.5ZM9.82031 10.5H8.17969V8.82031H9.82031V10.5ZM14.8203 13.8203H3.17969V11.3203H6.5V12.1797H11.5V11.3203H14.8203V13.8203Z"
    fill="#747A80"
  />
</svg>
